<svg xmlns="http://www.w3.org/2000/svg" width="1280" height="800" viewBox="0 0 1280 800"
     font-family="-apple-system, system-ui, sans-serif" fill="#fff" stroke="#000" stroke-width="1.5">
  <rect x="0" y="0" width="1280" height="800" />

  <line x1="0" y1="56" x2="1280" y2="56" />
  <text x="24" y="36" font-size="14" stroke="none" fill="#000">Paperclip</text>
  <text x="120" y="36" font-size="14" stroke="none" fill="#666">/  Triage  /  content-training  /  Items</text>

  <!-- Route sidebar -->
  <line x1="240" y1="56" x2="240" y2="800" />
  <g transform="translate(16,80)" stroke="none" font-size="12" fill="#666"><text>QUEUE</text></g>
  <g font-size="14" stroke="none" fill="#000">
    <text x="16" y="120">Workbench</text>
    <rect x="8" y="136" width="216" height="32" stroke="none" fill="#e6e6e6" />
    <text x="16" y="156">Items</text>
    <text x="16" y="188">Guidance</text>
    <text x="16" y="212">Workflow</text>
    <text x="16" y="236">Transition actions</text>
    <text x="16" y="260">Settings</text>
  </g>

  <!-- Header -->
  <g transform="translate(280,80)" stroke="none">
    <text font-size="28" fill="#000">Items</text>
    <text font-size="14" fill="#666" y="32">content-training  ·  24 active  ·  17 done</text>
  </g>
  <g transform="translate(1056,88)">
    <rect width="200" height="40" rx="4" fill="#000" stroke="#000" stroke-width="1.5" />
    <text x="100" y="26" text-anchor="middle" font-size="14" stroke="none" fill="#fff">Start triage (next New)</text>
  </g>

  <!-- Tab strip by state -->
  <g transform="translate(280,160)">
    <line x1="0" y1="40" x2="976" y2="40" />
    <g font-size="14" stroke="none">
      <text x="0" y="26" fill="#000">New</text>
      <g transform="translate(36,16)"><rect width="32" height="20" rx="10" fill="#e6e6e6" /><text x="16" y="14" text-anchor="middle" font-size="12" stroke="none" fill="#000">12</text></g>
      <line x1="-8" y1="40" x2="76" y2="40" stroke="#000" stroke-width="3" />

      <text x="112" y="26" fill="#666">Approved</text>
      <g transform="translate(184,16)"><rect width="24" height="20" rx="10" fill="#fff" stroke="#000" stroke-width="1.5" /><text x="12" y="14" text-anchor="middle" font-size="12" stroke="none" fill="#000">4</text></g>

      <text x="232" y="26" fill="#666">Rejected</text>
      <g transform="translate(300,16)"><rect width="24" height="20" rx="10" fill="#fff" stroke="#000" stroke-width="1.5" /><text x="12" y="14" text-anchor="middle" font-size="12" stroke="none" fill="#000">2</text></g>

      <text x="344" y="26" fill="#666">Done</text>
      <g transform="translate(388,16)"><rect width="32" height="20" rx="10" fill="#fff" stroke="#000" stroke-width="1.5" /><text x="16" y="14" text-anchor="middle" font-size="12" stroke="none" fill="#000">17</text></g>
    </g>
    <g font-size="14" stroke="none" fill="#000">
      <text x="912" y="26" text-anchor="end" fill="#666">Filter ▾</text>
      <text x="976" y="26" text-anchor="end" fill="#666">⋯</text>
    </g>
  </g>

  <!-- Items table -->
  <g transform="translate(280,224)">
    <rect width="976" height="544" rx="4" fill="#fff" stroke="#000" stroke-width="1.5" />
    <!-- table header -->
    <line x1="0" y1="40" x2="976" y2="40" />
    <g font-size="12" stroke="none" fill="#666">
      <text x="16" y="24">ID</text>
      <text x="80" y="24">TITLE</text>
      <text x="448" y="24">PROPERTIES</text>
      <text x="704" y="24">ITEM KEY</text>
      <text x="832" y="24">AGE</text>
      <text x="912" y="24">WORK ISSUE</text>
    </g>
    <!-- rows -->
    <g font-size="14" stroke="none" fill="#000">
      <rect x="0" y="40" width="976" height="48" fill="#e6e6e6" stroke="none" />
      <text x="16" y="68">#142</text><text x="80" y="68">Draft launch post</text>
      <text x="448" y="68" font-size="12" fill="#666">sourceKind: blog · priority: medium</text>
      <text x="704" y="68" font-size="12" fill="#666">ext-9210-blog</text>
      <text x="832" y="68" font-size="12" fill="#666">2m</text>
      <text x="912" y="68" font-size="12" fill="#666">—</text>

      <line x1="0" y1="88" x2="976" y2="88" stroke="#e6e6e6" />
      <text x="16" y="116">#141</text><text x="80" y="116">v2 pricing intro</text>
      <text x="448" y="116" font-size="12" fill="#666">sourceKind: blog · priority: high</text>
      <text x="704" y="116" font-size="12" fill="#666">ext-9209-blog</text>
      <text x="832" y="116" font-size="12" fill="#666">14m</text>
      <text x="912" y="116" font-size="12" fill="#666">—</text>

      <line x1="0" y1="136" x2="976" y2="136" stroke="#e6e6e6" />
      <text x="16" y="164">#140</text><text x="80" y="164">Team page rewrite</text>
      <text x="448" y="164" font-size="12" fill="#666">sourceKind: blog · stat:views=1240</text>
      <text x="704" y="164" font-size="12" fill="#666">ext-9208-blog</text>
      <text x="832" y="164" font-size="12" fill="#666">1h</text>
      <text x="912" y="164" font-size="12" fill="#000">PAP-9912 ›</text>

      <line x1="0" y1="184" x2="976" y2="184" stroke="#e6e6e6" />
      <text x="16" y="212">#139</text><text x="80" y="212">Q3 announce</text>
      <text x="448" y="212" font-size="12" fill="#666">sourceKind: announce</text>
      <text x="704" y="212" font-size="12" fill="#666">—</text>
      <text x="832" y="212" font-size="12" fill="#666">3h</text>
      <text x="912" y="212" font-size="12" fill="#666">—</text>

      <line x1="0" y1="232" x2="976" y2="232" stroke="#e6e6e6" />
      <text x="16" y="260">#138</text><text x="80" y="260">Beta notes</text>
      <text x="448" y="260" font-size="12" fill="#666">sourceKind: changelog</text>
      <text x="704" y="260" font-size="12" fill="#666">—</text>
      <text x="832" y="260" font-size="12" fill="#666">5h</text>
      <text x="912" y="260" font-size="12" fill="#666">—</text>

      <line x1="0" y1="280" x2="976" y2="280" stroke="#e6e6e6" />
      <text x="16" y="308">#137</text><text x="80" y="308">Press blurb</text>
      <text x="448" y="308" font-size="12" fill="#666">sourceKind: press</text>
      <text x="704" y="308" font-size="12" fill="#666">—</text>
      <text x="832" y="308" font-size="12" fill="#666">8h</text>
      <text x="912" y="308" font-size="12" fill="#666">—</text>

      <line x1="0" y1="328" x2="976" y2="328" stroke="#e6e6e6" />
      <text x="16" y="356">#136</text><text x="80" y="356">Marketing newsletter</text>
      <text x="448" y="356" font-size="12" fill="#666">sourceKind: newsletter</text>
      <text x="704" y="356" font-size="12" fill="#666">nl-2026-05-19</text>
      <text x="832" y="356" font-size="12" fill="#666">1d</text>
      <text x="912" y="356" font-size="12" fill="#666">—</text>

      <text x="16" y="408" font-size="12" fill="#666">+ 5 more</text>
    </g>
  </g>

  <!-- Footer pagination -->
  <g transform="translate(280,776)" stroke="none" font-size="12" fill="#666">
    <text>Showing 7 of 12 New</text>
    <text x="976" text-anchor="end">‹  1 of 2  ›</text>
  </g>

  <!-- annotations -->
  <g font-size="12" font-weight="bold" stroke="none" fill="#d33">
    <circle cx="272" cy="184" r="10" stroke="#d33" fill="#fff" stroke-width="1.5" /><text x="272" y="188" text-anchor="middle">1</text>
    <circle cx="272" cy="264" r="10" stroke="#d33" fill="#fff" stroke-width="1.5" /><text x="272" y="268" text-anchor="middle">2</text>
    <circle cx="1048" cy="104" r="10" stroke="#d33" fill="#fff" stroke-width="1.5" /><text x="1048" y="108" text-anchor="middle">3</text>
    <circle cx="904" cy="264" r="10" stroke="#d33" fill="#fff" stroke-width="1.5" /><text x="904" y="268" text-anchor="middle">4</text>
  </g>
</svg>
