<svg xmlns="http://www.w3.org/2000/svg" width="375" height="812" viewBox="0 0 375 812"
     font-family="-apple-system, system-ui, sans-serif" fill="#fff" stroke="#000" stroke-width="1.5">
  <rect x="0" y="0" width="375" height="812" />

  <line x1="0" y1="48" x2="375" y2="48" />
  <g font-size="14" stroke="none">
    <text x="16" y="30" fill="#000">‹  content-training</text>
    <text x="359" y="30" text-anchor="end" fill="#666">⋯</text>
  </g>

  <g transform="translate(16,72)" stroke="none">
    <text font-size="20" fill="#000">Items · 12 New</text>
  </g>

  <!-- State tabs (scroll) -->
  <line x1="0" y1="144" x2="375" y2="144" />
  <g transform="translate(16,116)" font-size="14" stroke="none">
    <text fill="#000">New (12)</text><line x1="-4" y1="28" x2="76" y2="28" stroke="#000" stroke-width="3" />
    <text x="100" fill="#666">Approved (4)</text>
    <text x="208" fill="#666">Rejected (2)</text>
    <text x="296" fill="#666">Done (17)</text>
  </g>

  <!-- Search -->
  <g transform="translate(16,160)">
    <rect width="343" height="40" rx="4" fill="#fff" stroke="#000" stroke-width="1.5" />
    <text x="12" y="26" font-size="14" stroke="none" fill="#666">Search title or itemKey…</text>
  </g>

  <!-- Items list (compact rows) -->
  <g transform="translate(16,216)">
    <rect width="343" height="72" rx="4" fill="#e6e6e6" stroke="none" />
    <text x="12" y="22" font-size="14" stroke="none" fill="#000">#142 · Draft launch post</text>
    <text x="12" y="40" font-size="12" stroke="none" fill="#666">blog · priority medium · 2m ago</text>
    <text x="12" y="60" font-size="12" stroke="none" fill="#666">ext-9210-blog · no work issue</text>
  </g>
  <g transform="translate(16,296)">
    <rect width="343" height="72" rx="4" fill="#fff" stroke="#000" stroke-width="1.5" />
    <text x="12" y="22" font-size="14" stroke="none" fill="#000">#141 · v2 pricing intro</text>
    <text x="12" y="40" font-size="12" stroke="none" fill="#666">blog · priority high · 14m ago</text>
    <text x="12" y="60" font-size="12" stroke="none" fill="#666">ext-9209-blog · no work issue</text>
  </g>
  <g transform="translate(16,376)">
    <rect width="343" height="72" rx="4" fill="#fff" stroke="#000" stroke-width="1.5" />
    <text x="12" y="22" font-size="14" stroke="none" fill="#000">#140 · Team page rewrite</text>
    <text x="12" y="40" font-size="12" stroke="none" fill="#666">blog · views 1.2k · 1h ago</text>
    <text x="12" y="60" font-size="12" stroke="none" fill="#000">PAP-9912 › work issue</text>
  </g>
  <g transform="translate(16,456)">
    <rect width="343" height="72" rx="4" fill="#fff" stroke="#000" stroke-width="1.5" />
    <text x="12" y="22" font-size="14" stroke="none" fill="#000">#139 · Q3 announce</text>
    <text x="12" y="40" font-size="12" stroke="none" fill="#666">announce · 3h ago</text>
    <text x="12" y="60" font-size="12" stroke="none" fill="#666">no key · no work issue</text>
  </g>
  <g transform="translate(16,536)">
    <rect width="343" height="72" rx="4" fill="#fff" stroke="#000" stroke-width="1.5" />
    <text x="12" y="22" font-size="14" stroke="none" fill="#000">#138 · Beta notes</text>
    <text x="12" y="40" font-size="12" stroke="none" fill="#666">changelog · 5h ago</text>
    <text x="12" y="60" font-size="12" stroke="none" fill="#666">no key · no work issue</text>
  </g>

  <!-- Bottom CTA -->
  <line x1="0" y1="744" x2="375" y2="744" />
  <g transform="translate(16,756)">
    <rect width="343" height="40" rx="4" fill="#000" stroke="#000" stroke-width="1.5" />
    <text x="171.5" y="26" text-anchor="middle" font-size="14" stroke="none" fill="#fff">Open #142 in workbench →</text>
  </g>
</svg>
