<svg xmlns="http://www.w3.org/2000/svg" width="1280" height="800" viewBox="0 0 1280 800"
     font-family="-apple-system, system-ui, sans-serif" fill="#fff" stroke="#000" stroke-width="1.5">
  <rect x="0" y="0" width="1280" height="800" />

  <!-- App top nav -->
  <line x1="0" y1="56" x2="1280" y2="56" />
  <text x="24" y="36" font-size="14" stroke="none" fill="#000">Paperclip</text>
  <text x="120" y="36" font-size="14" stroke="none" fill="#666">/  Triage</text>

  <!-- Route sidebar -->
  <line x1="240" y1="56" x2="240" y2="800" />
  <g transform="translate(16,80)" stroke="none" font-size="12" fill="#666"><text>QUEUES</text></g>
  <g font-size="14" stroke="none" fill="#000">
    <rect x="8" y="96" width="216" height="32" stroke="none" fill="#e6e6e6" />
    <text x="16" y="116">All queues</text><text x="216" y="116" text-anchor="end" fill="#666">24</text>
    <text x="16" y="148">inbox</text><text x="216" y="148" text-anchor="end" fill="#666">3</text>
    <text x="16" y="172">drafts</text><text x="216" y="172" text-anchor="end" fill="#666">7</text>
    <text x="16" y="196">content-training</text><text x="216" y="196" text-anchor="end" fill="#666">12</text>
    <text x="16" y="220">financial-approvals</text><text x="216" y="220" text-anchor="end" fill="#666">2</text>
    <text x="16" y="244">+ New queue</text>
  </g>
  <line x1="16" y1="264" x2="224" y2="264" />
  <g transform="translate(16,288)" stroke="none">
    <text font-size="12" fill="#666">PLUGIN</text>
    <text y="24" font-size="14" fill="#000">Triage settings</text>
    <text y="48" font-size="14" fill="#000">Reconcile resources</text>
    <text y="72" font-size="14" fill="#000">Managed agent: Triage Assistant</text>
  </g>

  <!-- Main page header -->
  <g transform="translate(280,96)" stroke="none">
    <text font-size="28" fill="#000">Triage queues</text>
    <text font-size="14" fill="#666" y="32">Process items one at a time. Teach the assistant. Move work into Paperclip.</text>
  </g>
  <g transform="translate(960,88)">
    <rect width="144" height="40" rx="4" fill="#fff" stroke="#000" stroke-width="1.5" />
    <text x="72" y="25" text-anchor="middle" font-size="14" stroke="none" fill="#000">Ingest API</text>
  </g>
  <g transform="translate(1120,88)">
    <rect width="136" height="40" rx="4" fill="#000" stroke="#000" stroke-width="1.5" />
    <text x="68" y="25" text-anchor="middle" font-size="14" stroke="none" fill="#fff">+ New queue</text>
  </g>

  <!-- Search + filter row -->
  <g transform="translate(280,160)">
    <rect width="480" height="40" rx="4" fill="#fff" stroke="#000" stroke-width="1.5" />
    <text x="16" y="26" font-size="14" stroke="none" fill="#666">Search queues by name or key…</text>
    <g transform="translate(496,0)"><rect width="120" height="40" rx="4" fill="#fff" stroke="#000" stroke-width="1.5" /><text x="60" y="26" text-anchor="middle" font-size="14" stroke="none" fill="#000">Active ▾</text></g>
    <g transform="translate(632,0)"><rect width="120" height="40" rx="4" fill="#fff" stroke="#000" stroke-width="1.5" /><text x="60" y="26" text-anchor="middle" font-size="14" stroke="none" fill="#000">Sort: Updated ▾</text></g>
  </g>

  <!-- Queue cards grid 3-up -->
  <!-- card 1 -->
  <g transform="translate(280,224)">
    <rect width="312" height="232" rx="8" fill="#fff" stroke="#000" stroke-width="1.5" />
    <text x="16" y="32" font-size="20" stroke="none" fill="#000">content-training</text>
    <text x="16" y="52" font-size="12" stroke="none" fill="#666">key: content-training  ·  Triage Assistant</text>
    <text x="16" y="80" font-size="14" stroke="none" fill="#666">Editorial review queue. Teach the assistant tone.</text>

    <line x1="0" y1="104" x2="312" y2="104" />
    <g font-size="12" stroke="none" fill="#666">
      <text x="16" y="128">STATE COUNTS</text>
    </g>
    <g font-size="14" stroke="none">
      <rect x="16" y="140" width="64" height="28" rx="14" fill="#e6e6e6" />
      <text x="48" y="158" text-anchor="middle" fill="#000">New 12</text>

      <rect x="88" y="140" width="80" height="28" rx="14" fill="#fff" stroke="#000" stroke-width="1.5" />
      <text x="128" y="158" text-anchor="middle" fill="#000">Approved 4</text>

      <rect x="176" y="140" width="72" height="28" rx="14" fill="#fff" stroke="#000" stroke-width="1.5" />
      <text x="212" y="158" text-anchor="middle" fill="#000">Rejected 2</text>

      <rect x="256" y="140" width="48" height="28" rx="14" fill="#fff" stroke="#000" stroke-width="1.5" />
      <text x="280" y="158" text-anchor="middle" fill="#000">Done 17</text>
    </g>
    <text x="16" y="200" font-size="12" stroke="none" fill="#666">Updated 2m ago · guidance.md +3 styles · 1 transition action</text>
    <g transform="translate(16,210)"><rect width="120" height="32" rx="4" fill="#000" stroke="#000" stroke-width="1.5" /><text x="60" y="20" text-anchor="middle" font-size="12" stroke="none" fill="#fff">Open workbench</text></g>
    <g transform="translate(152,210)"><rect width="80" height="32" rx="4" fill="#fff" stroke="#000" stroke-width="1.5" /><text x="40" y="20" text-anchor="middle" font-size="12" stroke="none" fill="#000">Settings</text></g>
  </g>

  <!-- card 2 -->
  <g transform="translate(616,224)">
    <rect width="312" height="232" rx="8" fill="#fff" stroke="#000" stroke-width="1.5" />
    <text x="16" y="32" font-size="20" stroke="none" fill="#000">inbox</text>
    <text x="16" y="52" font-size="12" stroke="none" fill="#666">key: inbox  ·  Triage Assistant</text>
    <text x="16" y="80" font-size="14" stroke="none" fill="#666">Default catch-all queue.</text>
    <line x1="0" y1="104" x2="312" y2="104" />
    <g font-size="14" stroke="none">
      <rect x="16" y="140" width="56" height="28" rx="14" fill="#e6e6e6" />
      <text x="44" y="158" text-anchor="middle" fill="#000">New 3</text>

      <rect x="80" y="140" width="80" height="28" rx="14" fill="#fff" stroke="#000" stroke-width="1.5" />
      <text x="120" y="158" text-anchor="middle" fill="#000">Approved 0</text>

      <rect x="168" y="140" width="72" height="28" rx="14" fill="#fff" stroke="#000" stroke-width="1.5" />
      <text x="204" y="158" text-anchor="middle" fill="#000">Rejected 0</text>

      <rect x="248" y="140" width="48" height="28" rx="14" fill="#fff" stroke="#000" stroke-width="1.5" />
      <text x="272" y="158" text-anchor="middle" fill="#000">Done 5</text>
    </g>
    <text x="16" y="200" font-size="12" stroke="none" fill="#666">Updated 1h ago · guidance.md · no actions</text>
    <g transform="translate(16,210)"><rect width="120" height="32" rx="4" fill="#000" stroke="#000" stroke-width="1.5" /><text x="60" y="20" text-anchor="middle" font-size="12" stroke="none" fill="#fff">Open workbench</text></g>
    <g transform="translate(152,210)"><rect width="80" height="32" rx="4" fill="#fff" stroke="#000" stroke-width="1.5" /><text x="40" y="20" text-anchor="middle" font-size="12" stroke="none" fill="#000">Settings</text></g>
  </g>

  <!-- card 3 -->
  <g transform="translate(952,224)">
    <rect width="312" height="232" rx="8" fill="#fff" stroke="#000" stroke-width="1.5" />
    <text x="16" y="32" font-size="20" stroke="none" fill="#000">financial-approvals</text>
    <text x="16" y="52" font-size="12" stroke="none" fill="#666">key: financial-approvals  ·  Finance Reviewer</text>
    <text x="16" y="80" font-size="14" stroke="none" fill="#666">Tighter workflow with stricter reflection.</text>
    <line x1="0" y1="104" x2="312" y2="104" />
    <g font-size="14" stroke="none">
      <rect x="16" y="140" width="56" height="28" rx="14" fill="#e6e6e6" />
      <text x="44" y="158" text-anchor="middle" fill="#000">New 2</text>

      <rect x="80" y="140" width="80" height="28" rx="14" fill="#fff" stroke="#000" stroke-width="1.5" />
      <text x="120" y="158" text-anchor="middle" fill="#000">Approved 1</text>

      <rect x="168" y="140" width="72" height="28" rx="14" fill="#fff" stroke="#000" stroke-width="1.5" />
      <text x="204" y="158" text-anchor="middle" fill="#000">Rejected 4</text>

      <rect x="248" y="140" width="48" height="28" rx="14" fill="#fff" stroke="#000" stroke-width="1.5" />
      <text x="272" y="158" text-anchor="middle" fill="#000">Done 33</text>
    </g>
    <text x="16" y="200" font-size="12" stroke="none" fill="#666">Updated 4h ago · 3 docs · creates work issue on Approve</text>
    <g transform="translate(16,210)"><rect width="120" height="32" rx="4" fill="#000" stroke="#000" stroke-width="1.5" /><text x="60" y="20" text-anchor="middle" font-size="12" stroke="none" fill="#fff">Open workbench</text></g>
    <g transform="translate(152,210)"><rect width="80" height="32" rx="4" fill="#fff" stroke="#000" stroke-width="1.5" /><text x="40" y="20" text-anchor="middle" font-size="12" stroke="none" fill="#000">Settings</text></g>
  </g>

  <!-- card 4..6 (second row) -->
  <g transform="translate(280,480)">
    <rect width="312" height="200" rx="8" fill="#fff" stroke="#000" stroke-width="1.5" />
    <text x="16" y="32" font-size="20" stroke="none" fill="#000">drafts</text>
    <text x="16" y="52" font-size="12" stroke="none" fill="#666">key: drafts</text>
    <text x="16" y="80" font-size="14" stroke="none" fill="#666">Blog drafts waiting for review.</text>
    <g font-size="14" stroke="none" transform="translate(0,108)">
      <rect x="16" y="0" width="56" height="28" rx="14" fill="#e6e6e6" />
      <text x="44" y="18" text-anchor="middle" fill="#000">New 7</text>
      <rect x="80" y="0" width="48" height="28" rx="14" fill="#fff" stroke="#000" stroke-width="1.5" />
      <text x="104" y="18" text-anchor="middle" fill="#000">Done 2</text>
    </g>
    <g transform="translate(16,160)"><rect width="120" height="32" rx="4" fill="#000" stroke="#000" stroke-width="1.5" /><text x="60" y="20" text-anchor="middle" font-size="12" stroke="none" fill="#fff">Open workbench</text></g>
  </g>

  <g transform="translate(616,480)">
    <rect width="312" height="200" rx="8" fill="#fff" stroke="#000" stroke-width="1.5" stroke-dasharray="4 4" />
    <text x="16" y="40" font-size="20" stroke="none" fill="#666">+ Create a queue</text>
    <text x="16" y="68" font-size="12" stroke="none" fill="#666">Or POST to /api/plugins/paperclipai.plugin-triage/api/queues/:queueKey/items</text>
    <text x="16" y="88" font-size="12" stroke="none" fill="#666">Unknown queueKey auto-creates with default workflow + guidance.md.</text>
  </g>

  <g transform="translate(952,480)">
    <rect width="312" height="200" rx="8" fill="#fff" stroke="#000" stroke-width="1.5" />
    <text x="16" y="32" font-size="20" stroke="none" fill="#000">reviews (archived)</text>
    <text x="16" y="52" font-size="12" stroke="none" fill="#666">key: reviews · 0 active items</text>
    <text x="16" y="84" font-size="14" stroke="none" fill="#666">Hidden from default view.</text>
    <g transform="translate(16,160)"><rect width="100" height="32" rx="4" fill="#fff" stroke="#000" stroke-width="1.5" /><text x="50" y="20" text-anchor="middle" font-size="12" stroke="none" fill="#000">Unarchive</text></g>
  </g>

  <!-- Footer pagination -->
  <g transform="translate(280,712)" stroke="none" font-size="12" fill="#666">
    <text>Showing 5 active queues</text>
    <text x="984" text-anchor="end">‹  1  ›</text>
  </g>

  <!-- annotations -->
  <g stroke="#d33" stroke-width="1.5" fill="none" stroke-dasharray="4 4">
    <rect x="0" y="56" width="240" height="744" />
  </g>
  <g font-size="12" font-weight="bold" stroke="none" fill="#d33">
    <circle cx="14" cy="80" r="10" stroke="#d33" fill="#fff" stroke-width="1.5" /><text x="14" y="84" text-anchor="middle">1</text>
    <circle cx="272" cy="240" r="10" stroke="#d33" fill="#fff" stroke-width="1.5" /><text x="272" y="244" text-anchor="middle">2</text>
    <circle cx="608" cy="496" r="10" stroke="#d33" fill="#fff" stroke-width="1.5" /><text x="608" y="500" text-anchor="middle">3</text>
    <circle cx="944" cy="104" r="10" stroke="#d33" fill="#fff" stroke-width="1.5" /><text x="944" y="108" text-anchor="middle">4</text>
  </g>
</svg>
